<?xml version="1.0" standalone="no"?>
<!DOCTYPE svg PUBLIC "-//W3C//DTD SVG 20010904//EN"
 "http://www.w3.org/TR/2001/REC-SVG-20010904/DTD/svg10.dtd">
<svg version="1.0" xmlns="http://www.w3.org/2000/svg"
 width="300.000000pt" height="300.000000pt" viewBox="0 0 300.000000 300.000000"
 preserveAspectRatio="xMidYMid meet">
<metadata>
Created by potrace 1.10, written by Peter Selinger 2001-2011
</metadata>
<g transform="translate(0.000000,300.000000) scale(0.100000,-0.100000)"
fill="#000000" stroke="none">
<path d="M1395 2305 c-299 -55 -540 -270 -635 -570 -31 -97 -39 -290 -16 -398
32 -156 92 -270 205 -389 166 -176 359 -258 603 -258 189 0 327 44 496 156 2
1 -34 51 -80 111 -46 59 -103 135 -127 168 -25 33 -45 61 -46 63 -1 1 -33 -18
-71 -43 -154 -101 -313 -128 -480 -80 -10 3 1 -5 26 -17 33 -16 69 -23 137
-26 107 -5 163 9 292 71 l84 41 28 -34 c16 -19 29 -40 29 -47 0 -7 6 -13 13
-14 12 0 121 -142 132 -172 6 -14 -4 -21 -100 -70 -49 -25 -79 -37 -100 -40
-11 -1 -25 -6 -31 -10 -7 -4 -55 -12 -107 -19 -74 -9 -115 -9 -184 0 -140 19
-158 25 -258 74 -164 82 -270 185 -359 350 -30 57 -41 88 -74 211 -11 41 -14
245 -4 262 3 5 7 25 9 44 4 46 48 164 84 224 16 26 29 52 29 58 0 19 194 203
236 224 21 10 46 24 54 30 22 17 112 53 146 59 16 3 45 10 64 16 19 5 87 10
151 10 120 0 232 -20 300 -54 18 -9 38 -16 46 -16 7 0 13 -3 13 -7 0 -5 20
-16 45 -26 32 -14 45 -25 45 -39 0 -11 -39 -72 -87 -136 -117 -156 -106 -147
-155 -133 -22 7 -42 10 -45 7 -3 -3 -22 4 -43 14 -65 33 -180 60 -255 59 -61
0 -153 -18 -220 -43 -40 -15 16 24 72 51 92 43 190 65 293 65 82 0 90 2 55 10
-58 14 -200 2 -272 -22 -77 -27 -187 -96 -177 -112 4 -6 3 -8 -3 -5 -13 8 -82
-65 -115 -124 -27 -47 -63 -147 -56 -155 3 -2 16 23 29 56 64 162 168 244 325
256 81 7 174 -1 174 -14 0 -4 -28 -15 -62 -25 -60 -18 -136 -65 -168 -104 -51
-61 -81 -116 -97 -178 -20 -77 -20 -74 -8 -165 5 -36 8 -68 7 -72 -1 -5 3 -8
8 -8 6 0 10 -7 10 -15 0 -23 65 -118 105 -154 62 -54 139 -83 235 -88 47 -3
95 -1 108 4 17 6 0 9 -60 10 -132 1 -240 54 -313 153 -150 204 -63 491 177
582 90 34 254 18 317 -31 l25 -19 127 171 128 172 -22 17 c-38 30 -149 85
-217 106 -136 44 -276 53 -415 27z"/>
<path d="M1810 1761 c0 -5 3 -11 8 -13 16 -7 212 -236 212 -248 0 -7 -26 -43
-57 -79 -32 -36 -82 -94 -111 -128 l-54 -63 232 0 232 0 -69 78 c-38 42 -91
103 -117 134 l-48 58 93 107 c51 60 104 120 118 136 l25 27 -232 0 c-134 0
-232 -4 -232 -9z m370 -20 c18 -1 21 -4 12 -10 -8 -4 -13 -11 -13 -15 1 -6
-37 -52 -81 -98 -10 -10 -18 -21 -19 -25 0 -5 -11 -15 -25 -23 -24 -14 -26
-13 -55 20 -16 19 -51 57 -77 84 -26 27 -40 46 -32 41 13 -8 13 -6 2 8 -12 15
-7 16 60 19 65 3 155 2 228 -1z m-88 -362 c23 -28 53 -63 65 -77 15 -17 19
-29 11 -33 -12 -8 -236 -9 -255 -2 -10 4 -8 12 7 32 30 43 111 131 120 131 5
0 28 -23 52 -51z"/>
<path d="M976 1360 c11 -78 65 -183 124 -240 34 -33 159 -114 166 -108 3 3
-14 17 -38 31 -61 36 -150 125 -184 183 -16 27 -39 78 -52 114 -21 61 -22 62
-16 20z"/>
</g>
</svg>
